<?xml version="1.0" encoding="UTF-8"?>
<svg xmlns="http://www.w3.org/2000/svg" xmlns:xlink="http://www.w3.org/1999/xlink" version="1.1" viewBox="0 0 153.2 153.2">
  <defs>
    <style>
      .cls-1 {
        fill: none;
      }

      .cls-2 {
        fill: #acdff8;
      }

      .cls-3 {
        fill: #008f7e;
      }

      .cls-4 {
        fill: #fcc519;
      }

      .cls-5 {
        fill: #2657a5;
      }

      .cls-6 {
        clip-path: url(#clippath);
      }
    </style>
    <clipPath id="clippath">
      <path class="cls-1" d="M21.4,76.6c0,29.2,23.7,52.9,52.9,52.9s52.9-23.7,52.9-52.9-23.7-52.9-52.9-52.9-52.9,23.7-52.9,52.9Z"/>
    </clipPath>
  </defs>
  <!-- Generator: Adobe Illustrator 28.6.0, SVG Export Plug-In . SVG Version: 1.2.0 Build 709)  -->
  <g>
    <g id="Layer_2">
      <g>
        <path class="cls-2" d="M145.1,76.6c0,38.9-31.5,70.4-70.4,70.4S4.3,115.5,4.3,76.6,35.8,6.2,74.7,6.2s70.4,31.5,70.4,70.4"/>
        <path class="cls-5" d="M131.9,76.6c0,31.8-25.8,57.5-57.5,57.5s-57.5-25.8-57.5-57.5,25.8-57.5,57.5-57.5c31.7,0,57.5,25.7,57.5,57.5"/>
        <path class="cls-4" d="M127,76.6c0,29.1-23.6,52.7-52.7,52.7s-52.7-23.6-52.7-52.7c0-29.1,23.7-52.6,52.8-52.6s52.6,23.5,52.6,52.6"/>
        <g class="cls-6">
          <path class="cls-5" d="M74.4,134.2c-31.8,0-57.6-25.8-57.6-57.6s.7-10.3,2.1-15.3l.2-.8.4-.6c6.8-10,18-15.9,30-15.9s23.1,5.8,29.9,15.6l4.3,6.3-7.5,1c-5.8.9-10.2,5.9-10.2,11.7s1.1,5.2,2.2,6.8c3.8,5.9,8.6,11.7,21.3,12.2,5.6.2,12.3-1.7,16.7-4.7,8.1-5.6,13.6-13.9,16.2-23.5,2.6-9.7-1-16.5-1-16.5l5.6,2,4.6,15c.3,2.2.4,4.4.4,6.6,0,31.9-25.9,57.7-57.6,57.7M27.6,64.6c-1,3.9-1.5,8-1.5,12,0,26.6,21.6,48.2,48.2,48.2s38.1-12.9,45.1-31c-2.4,2.5-5,4.8-7.9,6.8-6,4.2-14.8,6.7-22.4,6.4-16.4-.7-23.7-8.7-28.8-16.5-1.8-2.8-3.7-8-3.7-11.9,0-7.8,4.3-14.7,10.7-18.4-4.9-4.3-11.3-6.8-17.9-6.8-8.6,0-16.7,4.2-21.8,11.2"/>
        </g>
        <path class="cls-3" d="M74.4,129.3c29.1,0,52.7-23.6,52.7-52.7s0-4.1-.3-6c-2.6,10.7-9.1,20-17.9,26.1-5.1,3.5-12.8,5.8-19.5,5.5-14.2-.6-20.3-7.2-24.9-14.3-1.4-2.2-2.9-6.6-2.9-9.3,0-8.2,6.1-15.1,14.1-16.2-5.7-8.2-15.2-13.6-25.9-13.6s-20.4,5.5-26,13.8c-1.2,4.4-1.9,9.1-1.9,14-.2,29.1,23.4,52.7,52.5,52.7"/>
      </g>
    </g>
  </g>
</svg>